<svg xmlns="http://www.w3.org/2000/svg" width="40" height="39" viewBox="0 0 40 39" fill="none"><path d="M36.5877 20.7647L37.5973 16.9971C38.7756 12.5992 39.3648 10.4002 38.9211 8.49722C38.5709 6.99464 37.7828 5.6297 36.6567 4.57499C35.2305 3.23924 33.0314 2.65003 28.6336 1.4716C24.2357 0.293177 22.0366 -0.296027 20.1337 0.14769C18.6311 0.498029 17.2661 1.28608 16.2115 2.41218C15.0678 3.63324 14.4714 5.42081 13.5839 8.66997C13.4349 9.21563 13.2775 9.80292 13.1081 10.4352L12.0986 14.2028C10.9201 18.6007 10.3309 20.7996 10.7746 22.7027C11.125 24.2053 11.913 25.5703 13.0391 26.625C14.4653 27.9607 16.6643 28.5498 21.0623 29.7284C25.0263 30.7905 27.2037 31.374 28.9884 31.1538C29.1838 31.1298 29.3743 31.0961 29.5621 31.0522C31.0646 30.7019 32.4296 29.9138 33.4843 28.7878C34.82 27.3616 35.4093 25.1627 36.5877 20.7647Z" fill="url(#paint0_linear_193_835)"></path><path d="M2.34746 24.7972L3.35698 28.5649C4.53541 32.9628 5.12461 35.1617 6.46036 36.5879C7.51507 37.714 8.88002 38.5021 10.3826 38.8523C12.2856 39.296 14.4845 38.7069 18.8825 37.5285C23.2803 36.35 25.4794 35.7608 26.9056 34.4251C27.024 34.3141 27.1385 34.1999 27.2494 34.0825C26.5977 34.0277 25.9402 33.9227 25.2721 33.7899C23.9145 33.52 22.3015 33.0878 20.3938 32.5767L20.1371 32.5078C18.0615 31.9516 16.3272 31.4861 14.9424 30.9859C13.4862 30.4597 12.163 29.8113 11.0395 28.7589C9.49107 27.3087 8.40752 25.4318 7.92577 23.3659C7.57621 21.8666 7.67614 20.3965 7.94868 18.8722C8.20986 17.4117 8.67893 15.6613 9.24091 13.5641L10.3198 9.53784C6.57424 10.5468 4.60277 11.1438 3.28804 12.3752C2.16193 13.4299 1.37388 14.7948 1.02354 16.2973C0.579827 18.2003 1.16903 20.3992 2.34746 24.7972Z" fill="url(#paint1_linear_193_835)"></path><defs><linearGradient id="paint0_linear_193_835" x1="19.9725" y1="-1.61164e-06" x2="19.9725" y2="39.0008" gradientUnits="userSpaceOnUse"><stop offset="10%" stop-color="#9999FF"></stop><stop offset="1" stop-color="#2B2BFF"></stop></linearGradient><linearGradient id="paint1_linear_193_835" x1="19.9725" y1="-6.84369e-06" x2="19.9725" y2="39.0008" gradientUnits="userSpaceOnUse"><stop offset="10%" stop-color="#9999FF"></stop><stop offset="1" stop-color="#2B2BFF"></stop></linearGradient></defs></svg>